<?xml version="1.0" standalone="no"?>
<!DOCTYPE svg PUBLIC "-//W3C//DTD SVG 20010904//EN"
 "http://www.w3.org/TR/2001/REC-SVG-20010904/DTD/svg10.dtd">
<svg version="1.0" xmlns="http://www.w3.org/2000/svg"
 width="1280.000000pt" height="1280.000000pt" viewBox="0 0 1280.000000 1280.000000"
 preserveAspectRatio="xMidYMid meet">
<metadata>
Created by potrace 1.11, written by Peter Selinger 2001-2013
</metadata>
<g transform="translate(0.000000,1280.000000) scale(0.100000,-0.100000)"
fill="#000000" stroke="none">
<path d="M12740 11113 c0 -7 -80 -123 -108 -158 -5 -6 -45 -62 -90 -125 -45
-63 -85 -119 -90 -125 -4 -5 -23 -32 -42 -60 -19 -27 -39 -55 -45 -61 -5 -6
-16 -20 -23 -30 -7 -11 -53 -75 -103 -144 -49 -69 -120 -168 -156 -220 -37
-52 -71 -99 -75 -105 -20 -25 -68 -91 -128 -175 -36 -50 -75 -106 -88 -123
-46 -65 -77 -110 -87 -125 -5 -9 -20 -27 -33 -41 -12 -15 -25 -34 -28 -43 -3
-10 -9 -18 -14 -18 -5 0 -11 -8 -14 -17 -3 -10 -19 -34 -36 -53 -16 -19 -30
-38 -30 -41 0 -3 -9 -17 -20 -30 -29 -35 -32 -40 -65 -89 -16 -25 -38 -54 -47
-64 -10 -11 -18 -23 -18 -27 0 -4 -6 -14 -12 -21 -24 -25 -118 -158 -118 -167
0 -5 -7 -11 -15 -15 -8 -3 -15 -12 -15 -20 0 -8 -4 -16 -8 -18 -7 -2 -85 -109
-210 -287 -9 -13 -23 -29 -29 -36 -7 -8 -13 -18 -13 -23 0 -6 -3 -12 -7 -14
-5 -1 -15 -13 -23 -24 -8 -12 -38 -55 -67 -95 -68 -96 -280 -391 -290 -404 -5
-5 -40 -54 -78 -108 -75 -107 -63 -100 -146 -82 -9 2 -33 6 -54 9 -20 4 -40 8
-44 11 -4 2 -18 6 -32 9 -13 3 -46 10 -74 16 -27 5 -61 13 -75 15 -21 4 -55
13 -80 20 -3 1 -25 5 -50 10 -25 5 -47 9 -50 10 -3 0 -36 8 -75 18 -129 31
-240 56 -260 59 -11 2 -24 6 -30 9 -5 4 -18 5 -27 4 -10 -2 -18 1 -18 6 0 6
-4 8 -8 5 -5 -3 -33 1 -63 9 -30 8 -67 16 -84 19 -16 2 -30 5 -30 6 0 2 -158
38 -200 46 -16 3 -48 10 -70 16 -43 11 -67 16 -105 24 -14 3 -41 9 -60 14 -19
5 -47 12 -62 15 -16 3 -38 7 -50 10 -13 3 -32 7 -43 9 -11 2 -42 10 -70 16
-27 6 -57 13 -65 15 -8 2 -44 10 -79 19 -36 8 -68 13 -72 10 -4 -2 -10 0 -13
5 -3 5 -27 12 -53 17 -65 11 -67 11 -73 14 -3 1 -13 3 -22 6 -10 2 -24 6 -30
7 -7 2 -31 7 -53 11 -22 4 -47 10 -55 13 -8 3 -22 7 -30 8 -67 11 -93 17 -145
30 -33 8 -94 22 -135 31 -41 9 -82 18 -90 20 -13 3 -173 40 -185 43 -3 1 -6 1
-7 2 -2 0 -10 2 -18 4 -8 2 -28 6 -45 10 -16 4 -37 8 -45 9 -8 1 -39 8 -67 15
-45 11 -55 11 -68 -2 -8 -9 -15 -22 -15 -29 0 -8 -4 -18 -9 -24 -6 -5 -41 -70
-79 -144 -38 -74 -110 -214 -159 -310 -190 -369 -277 -537 -311 -605 -19 -38
-40 -73 -46 -77 -6 -4 -8 -8 -4 -8 4 0 -6 -25 -22 -55 -49 -91 -100 -194 -99
-201 0 -4 -3 -10 -8 -13 -8 -6 -53 -92 -234 -451 -46 -91 -86 -167 -89 -170
-3 -3 -30 -54 -60 -115 -30 -60 -59 -113 -63 -116 -5 -3 -8 -9 -8 -13 1 -3
-16 -39 -36 -79 -20 -39 -57 -112 -82 -162 -24 -49 -47 -92 -51 -95 -4 -3 -11
-16 -15 -30 -4 -14 -13 -32 -19 -40 -7 -8 -21 -35 -31 -60 -11 -25 -22 -47
-25 -50 -3 -3 -13 -18 -21 -35 -8 -16 -43 -85 -77 -152 -34 -68 -62 -126 -61
-129 0 -4 -3 -10 -8 -13 -5 -3 -25 -37 -44 -76 -98 -194 -151 -295 -155 -295
-2 0 -56 14 -119 30 -64 17 -126 32 -138 34 -12 3 -22 5 -22 6 0 1 -7 3 -50
14 -19 4 -91 22 -125 30 -8 2 -80 21 -160 41 -80 21 -149 38 -155 39 -5 1 -19
5 -30 9 -11 3 -31 9 -45 11 -14 3 -52 12 -85 21 -33 8 -73 17 -89 20 -16 3
-33 8 -38 11 -5 3 -21 7 -36 10 -15 3 -34 7 -42 11 -8 3 -20 7 -26 8 -6 2 -51
13 -100 25 -49 12 -97 24 -106 26 -10 2 -28 7 -40 10 -13 3 -27 6 -33 7 -5 2
-16 6 -23 10 -6 5 -12 6 -12 3 0 -2 -15 0 -32 5 -18 6 -42 12 -53 14 -72 16
-100 23 -100 26 0 1 -9 3 -20 5 -11 2 -38 8 -60 14 -22 6 -58 16 -80 21 -53
12 -70 17 -70 19 0 2 -27 9 -65 15 -19 3 -42 9 -50 12 -8 3 -26 8 -40 10 -14
2 -36 8 -50 13 -14 5 -36 12 -50 14 -14 3 -52 12 -84 21 -33 8 -69 17 -80 20
-12 2 -22 4 -23 6 -2 1 -6 2 -10 3 -72 16 -123 29 -143 37 -14 4 -38 11 -55
14 -16 2 -45 9 -63 14 -18 5 -36 11 -40 12 -4 1 -11 3 -17 5 -18 5 -229 56
-254 60 -14 3 -28 7 -33 10 -5 3 -20 7 -34 10 -14 3 -51 12 -82 21 -32 8 -65
16 -74 16 -10 1 -18 4 -18 7 0 3 -8 6 -17 6 -10 1 -29 4 -43 8 -23 6 -28 0
-75 -91 -27 -54 -53 -99 -57 -101 -5 -2 -8 -12 -8 -22 0 -10 -4 -21 -9 -24 -5
-3 -31 -50 -59 -103 -90 -177 -122 -236 -133 -250 -6 -7 -8 -13 -4 -13 4 0 3
-6 -3 -13 -6 -7 -39 -66 -73 -132 -35 -66 -80 -151 -100 -190 -21 -38 -54
-103 -75 -144 -21 -41 -54 -105 -75 -143 -21 -37 -34 -68 -31 -68 4 0 2 -4 -3
-8 -10 -7 -24 -31 -117 -212 -27 -52 -70 -135 -96 -185 -27 -49 -79 -148 -116
-220 -37 -71 -72 -134 -77 -139 -5 -6 -9 -18 -9 -27 0 -10 -3 -19 -7 -21 -5
-1 -24 -34 -44 -73 -35 -68 -107 -205 -197 -375 -24 -47 -76 -146 -115 -220
-38 -74 -75 -138 -81 -142 -6 -4 -7 -8 -3 -8 4 0 -7 -28 -26 -63 -80 -146
-126 -237 -119 -237 4 0 2 -4 -4 -8 -6 -4 -37 -56 -69 -117 -31 -60 -60 -114
-63 -120 -4 -5 -7 -15 -8 -22 -1 -6 -11 -22 -23 -34 -11 -12 -18 -25 -16 -30
3 -4 -2 -15 -11 -23 -8 -9 -12 -16 -9 -16 4 0 -2 -15 -13 -32 -16 -26 -79
-146 -131 -248 -4 -8 -13 -24 -19 -35 -28 -51 -122 -235 -122 -240 0 -3 2856
-4 6347 -3 l6348 3 0 4698 c0 2585 -3 4701 -7 4704 -5 2 -8 0 -8 -4z"/>
</g>
</svg>
